<svg xmlns="http://www.w3.org/2000/svg" viewBox="0 0 300 300"><defs><style>.cls-1{fill:#0e78f9;}</style></defs><g id="Layer_2" data-name="Layer 2"><g id="Layer_1-2" data-name="Layer 1"><path class="cls-1" d="M1.55,149.43l148,149V151c-3.22-.18-6.59-.51-10-.52-21.9,0-43.8,0-65.7,0C31.65,150.39,1.36,121.16.28,78.85c-.5-19.65-.22-39.33,0-59C.44,6.34,7.11.06,20.76.05q91.29,0,182.57,0c50.94.11,93.87,40.84,96.25,91.76.86,18.52.14,37.12.14,57.26L153.42,1.63l-2.26,1.53V149.4c3.84,0,7.59-.05,11.33,0,25.73.38,51.6-.69,77.17,1.57,33.69,3,59.12,32.1,59.87,66,.48,21.59.26,43.2.11,64.8-.09,12.19-6.24,18.09-18.68,18.1-62.15,0-124.3.36-186.45-.1-47.37-.34-89.9-40.65-92.76-88C.54,191.78,1.55,171.63,1.55,149.43Z"/></g></g></svg>